<mxfile host="app.diagrams.net" modified="2024-06-19T06:39:15.608Z" agent="Mozilla/5.0 (Windows NT 10.0; Win64; x64) AppleWebKit/537.36 (KHTML, like Gecko) Chrome/126.0.0.0 Safari/537.36 Edg/126.0.0.0" version="24.3.1" etag="qxopPbXaJRfTYZJZUpRT" type="github">
  <diagram name="Page-1" id="virp5z3okF0I4VH-VU8T">
    <mxGraphModel>
      <root>
        <mxCell id="0" />
        <mxCell id="1" parent="0" />
      </root>
    </mxGraphModel>
  </diagram>
</mxfile>
